HIERARCHY
ROOT Model_Hips
{
	OFFSET 0.000000 96.915077 0.000000
	CHANNELS 6 Xposition Yposition Zposition Xrotation Yrotation Zrotation
	JOINT Model_Spine
	{
		OFFSET 0.000000 11.137703 -1.289900
		CHANNELS 3 Xrotation Yrotation Zrotation
		JOINT Model_Spine1
		{
			OFFSET 0.000000 12.993942 -1.504922
			CHANNELS 3 Xrotation Yrotation Zrotation
			JOINT Model_Spine2
			{
				OFFSET 0.000000 14.850220 -1.719911
				CHANNELS 3 Xrotation Yrotation Zrotation
				JOINT Model_Neck
				{
					OFFSET 0.000000 16.706543 -1.934903
					CHANNELS 3 Xrotation Yrotation Zrotation
					JOINT Model_Head
					{
						OFFSET 0.000000 10.471298 2.002100
						CHANNELS 3 Xrotation Yrotation Zrotation
						JOINT Model_HeadTop_End
						{
							OFFSET 0.000000 20.842606 3.985100
							CHANNELS 3 Xrotation Yrotation Zrotation
							End Site
							{
								OFFSET 0.000000 21.220154 0.000000
							}
						}
					}
				}
				JOINT Model_LeftShoulder
				{
					OFFSET 7.008500 14.768600 -1.919946
					CHANNELS 3 Xrotation Yrotation Zrotation
					JOINT Model_LeftArm
					{
						OFFSET 14.126271 -3.718048 0.029937
						CHANNELS 3 Xrotation Yrotation Zrotation
						JOINT Model_LeftForeArm
						{
							OFFSET 28.282801 0.000000 0.000000
							CHANNELS 3 Xrotation Yrotation Zrotation
							JOINT Model_LeftHand
							{
								OFFSET 26.204689 0.000000 0.000000
								CHANNELS 3 Xrotation Yrotation Zrotation
								End Site
								{
									OFFSET 26.204704 0.000000 0.000000
								}
							}
						}
					}
				}
				JOINT Model_RightShoulder
				{
					OFFSET -7.008500 14.768555 -1.949840
					CHANNELS 3 Xrotation Yrotation Zrotation
					JOINT Model_RightArm
					{
						OFFSET -14.126281 -3.718018 -0.029932
						CHANNELS 3 Xrotation Yrotation Zrotation
						JOINT Model_RightForeArm
						{
							OFFSET -28.283798 0.000000 -0.000001
							CHANNELS 3 Xrotation Yrotation Zrotation
							JOINT Model_RightHand
							{
								OFFSET -26.204193 0.000000 -0.000001
								CHANNELS 3 Xrotation Yrotation Zrotation
								End Site
								{
									OFFSET -26.204208 0.000000 -0.000001
								}
							}
						}
					}
				}
			}
		}
	}
	JOINT Model_LeftUpLeg
	{
		OFFSET 8.327700 -6.193199 -0.402800
		CHANNELS 3 Xrotation Yrotation Zrotation
		JOINT Model_LeftLeg
		{
			OFFSET 0.735802 -42.108742 -0.610721
			CHANNELS 3 Xrotation Yrotation Zrotation
			JOINT Model_LeftFoot
			{
				OFFSET -0.735806 -36.833748 -0.172876
				CHANNELS 3 Xrotation Yrotation Zrotation
				JOINT Model_LeftToeBase
				{
					OFFSET -0.565857 -11.977769 16.297714
					CHANNELS 3 Xrotation Yrotation Zrotation
					JOINT Model_LeftToe_End
					{
						OFFSET -0.111712 -0.312793 7.857784
						CHANNELS 3 Xrotation Yrotation Zrotation
						End Site
						{
							OFFSET -0.111712 -0.312793 7.857784
						}
					}
				}
			}
		}
	}
	JOINT Model_RightUpLeg
	{
		OFFSET -8.327700 -6.193199 -0.516500
		CHANNELS 3 Xrotation Yrotation Zrotation
		JOINT Model_RightLeg
		{
			OFFSET -0.735785 -42.108738 -0.434061
			CHANNELS 3 Xrotation Yrotation Zrotation
			JOINT Model_RightFoot
			{
				OFFSET 0.735776 -36.833748 -0.021630
				CHANNELS 3 Xrotation Yrotation Zrotation
				JOINT Model_RightToeBase
				{
					OFFSET 0.565817 -11.977745 15.903093
					CHANNELS 3 Xrotation Yrotation Zrotation
					JOINT Model_RightToe_End
					{
						OFFSET 0.111702 -0.312791 7.811342
						CHANNELS 3 Xrotation Yrotation Zrotation
						End Site
						{
							OFFSET 0.111702 -0.312791 7.811342
						}
					}
				}
			}
		}
	}
}
MOTION
Frames: 14
Frame Time: 0.016667
12.514996 36.473503 367.602722 47.174177 -48.711174 78.991548 10.152266 -6.524484 -1.588892 20.581462 -10.516353 -0.144610 20.581464 -10.516335 -0.144620 2.156007 3.345173 -2.120812 2.156038 3.345173 -2.120790 -0.000000 0.000000 0.000000 0.362241 -5.563727 -21.430702 0.286707 6.219458 -63.452027 -148.351750 -173.569095 -190.299343 -0.000001 -0.000000 -0.000001 -0.050570 24.927848 12.864278 -31.840091 -0.829621 -5.819328 -379.939245 5.531942 357.334734 0.000002 -0.000002 -0.000002 -62.244320 -5.770709 36.724817 28.981924 -13.866160 1.781381 -2.512195 2.669491 -37.384146 1.360784 8.356244 -13.471654 0.000001 0.000000 -0.000001 -96.508688 -9.577061 -11.011283 135.019070 20.283869 -1.791812 32.814872 10.264304 41.475842 2.872774 -1.430874 7.570962 0.000001 0.000004 -0.000000 
12.603222 38.490715 373.898376 48.971480 -47.790851 77.212638 9.902038 -5.491630 -1.511550 20.001886 -8.523649 -0.281550 20.001897 -8.523669 -0.281530 1.486648 3.506434 -1.577920 1.486632 3.506426 -1.577928 -0.000000 0.000000 0.000000 0.397071 -5.187140 -22.907392 -0.202603 5.720610 -61.837589 -146.267026 -172.915514 -190.464579 -0.000001 -0.000000 -0.000000 -0.236750 25.773721 13.779190 -31.371428 -4.560753 -1.693849 -384.756796 7.161666 357.547508 0.000003 -0.000000 -0.000000 -67.786492 -7.156122 38.517107 33.926912 -14.686964 -0.074062 -0.174405 1.915282 -38.280881 0.899401 8.095130 -12.833489 0.000000 -0.000003 -0.000000 -96.470562 -7.860031 -15.169696 134.079305 23.716695 -1.504229 34.790842 11.095495 41.635976 4.540959 -0.485793 7.498276 0.000002 0.000002 -0.000001 
12.494873 40.396851 380.146515 49.739196 -47.227685 75.245523 9.575819 -4.525532 -1.664302 19.278014 -6.757574 -0.819774 19.277989 -6.757573 -0.819792 0.801767 3.679664 -1.050290 0.801749 3.679667 -1.050308 0.000000 -0.000000 0.000000 0.465066 -4.608266 -24.756388 -0.485229 5.159813 -58.615372 -144.010768 -172.188290 -190.600267 -0.000002 0.000000 -0.000000 -0.396563 26.079973 14.675684 -30.053485 -9.716206 4.642509 -391.232525 11.814322 359.537961 0.000001 0.000002 0.000002 -74.431577 -8.816821 39.089726 42.824330 -14.804676 -1.874232 1.170408 1.102295 -34.039037 0.652589 7.864928 -12.358928 -0.000000 -0.000002 -0.000000 -95.590458 -6.659943 -19.830042 132.404829 26.209871 -1.141630 37.294366 11.980638 41.256293 5.929308 0.326587 7.690309 0.000000 0.000003 0.000003 
12.292118 42.065376 386.306732 48.744427 -47.286373 72.688567 9.258611 -3.666989 -2.030890 18.588286 -5.258763 -1.680264 18.588307 -5.258753 -1.680268 0.150296 3.846060 -0.565484 0.150267 3.846066 -0.565402 -0.000001 -0.000001 -0.000000 0.565300 -3.855113 -26.470130 -0.377992 4.638981 -53.992369 -141.899543 -171.460848 -190.722979 -0.000000 -0.000000 0.000000 -0.494421 25.605329 15.379884 -27.617738 -15.476797 13.095673 -397.951300 18.998070 362.816124 0.000003 0.000001 0.000002 -80.930529 -9.683005 38.407226 52.697539 -14.974158 -3.778679 1.755414 0.544748 -28.950293 0.477587 7.517271 -11.745979 -0.000000 -0.000004 -0.000000 -93.425561 -5.376108 -25.123951 130.863556 27.902670 -0.793734 39.610497 12.790070 40.884611 5.307276 -0.362595 8.821954 0.000001 0.000001 -0.000000 
12.002060 43.508553 391.681183 45.680681 -47.842736 68.783400 9.018029 -2.938211 -2.410382 18.069542 -4.089489 -2.543619 18.069544 -4.089481 -2.543619 -0.430322 3.991597 -0.145276 -0.430359 3.991612 -0.145198 -0.000001 0.000000 0.000002 0.682205 -2.993242 -27.468099 0.233033 4.312525 -48.450066 -140.251309 -170.824862 -190.853626 0.000002 -0.000001 0.000001 -0.497473 24.275645 15.686315 -23.816555 -20.840917 23.243830 -402.950179 27.846627 366.379461 -0.000001 0.000002 0.000006 -86.834264 -9.258337 36.669718 61.320182 -16.755091 -5.429209 1.284994 0.525890 -23.201726 0.077882 7.163239 -11.017227 0.000000 0.000002 0.000000 -90.021832 -5.227171 -30.621814 129.456113 27.724143 -0.575889 41.593099 13.437648 40.419881 2.656938 -2.708841 10.434801 0.000002 -0.000001 -0.000001 
11.465527 44.904259 396.977112 40.606735 -48.330050 62.917367 8.841182 -2.395772 -2.659791 17.694640 -3.365484 -3.145553 17.694643 -3.365488 -3.145579 -0.919394 4.108352 0.197997 -0.919359 4.108349 0.197989 -0.000001 -0.000000 -0.000000 0.789281 -2.112501 -27.293282 1.345512 4.329555 -42.629570 -139.319576 -170.379888 -191.002429 -0.000002 -0.000001 0.000001 -0.389785 22.237259 15.431341 -18.527877 -24.914558 34.383517 -404.443313 37.460992 369.095992 -0.000001 0.000000 0.000001 -91.441630 -7.273776 34.709024 68.121807 -18.324242 -6.438838 1.141849 0.457847 -18.004794 -0.415442 7.067163 -10.638371 0.000001 0.000004 -0.000000 -85.277910 -6.070022 -36.794830 127.967310 27.112598 -0.406894 42.987237 13.867589 40.018806 0.187167 -4.999825 11.508105 0.000001 0.000002 0.000000 
10.701801 46.261223 402.249176 34.777172 -48.084808 55.909603 8.656297 -2.067756 -2.734860 17.311695 -3.101783 -3.473910 17.311712 -3.101799 -3.473903 -1.313569 4.194484 0.462987 -1.313557 4.194474 0.462972 -0.000000 0.000001 -0.000001 0.861440 -1.305019 -25.783747 2.804952 4.771285 -37.156092 -139.322786 -170.229242 -191.170014 -0.000000 0.000001 0.000001 -0.185203 19.827221 14.579066 -11.911479 -27.133598 45.621651 -401.763912 47.160646 370.337010 -0.000001 -0.000000 0.000001 -95.278564 -4.211556 33.074774 73.697714 -18.921478 -6.827881 1.763022 0.248631 -13.346502 -1.194707 7.247473 -10.539507 0.000000 -0.000003 -0.000000 -80.059530 -8.238808 -43.023754 126.022154 26.541591 -0.237638 44.167610 14.127255 39.427527 4.965521 -5.676441 6.959768 0.000002 0.000003 0.000001 
9.834927 47.474113 407.517639 30.147410 -47.228586 49.719624 8.417808 -1.916267 -2.689365 16.825915 -3.131621 -3.603557 16.825925 -3.131630 -3.603562 -1.623616 4.253187 0.657827 -1.623626 4.253200 0.657820 0.000001 0.000000 -0.000000 0.885567 -0.643633 -23.144163 4.292673 5.620087 -32.460033 -140.524995 -170.481850 -191.352667 -0.000002 -0.000001 0.000001 0.072144 17.473818 13.268804 -4.522889 -27.357285 56.008415 -396.186598 56.532871 370.728407 0.000001 0.000001 0.000000 -98.606519 -0.640463 32.223227 78.852307 -18.242933 -6.539382 2.261269 0.053776 -9.137183 -2.149881 7.346223 -10.238962 0.000000 0.000001 -0.000000 -74.759815 -10.422622 -48.047615 123.572315 27.516382 0.020899 45.139805 14.477708 39.309661 10.001273 -6.161272 2.826766 0.000003 0.000001 0.000000 
8.708832 48.718231 412.834961 26.233585 -46.039785 43.457188 8.150230 -1.863060 -2.541157 16.282466 -3.299765 -3.607001 16.282450 -3.299762 -3.607014 -1.867480 4.290200 0.795928 -1.867491 4.290210 0.795915 -0.000006 -0.000001 0.000003 0.863704 -0.172087 -19.882401 5.361920 6.764657 -28.660959 -143.247222 -171.242582 -191.522917 0.000001 -0.000000 0.000000 0.324102 15.567878 11.786930 2.732644 -25.835286 64.713481 -391.386068 65.326354 372.810931 0.000003 -0.000000 -0.000000 -101.574892 3.437058 32.653290 83.713729 -17.566468 -5.833072 2.109049 -0.094696 -4.286276 -2.542559 6.952591 -9.495723 0.000001 0.000001 -0.000000 -68.935679 -13.980558 -51.531732 120.022734 29.162951 0.394000 46.091544 14.834585 39.230011 14.240245 -6.597277 -0.085950 -0.000000 -0.000001 -0.000001 
7.331036 49.999466 418.221130 23.279677 -44.758062 37.289486 7.871457 -1.895469 -2.308064 15.718027 -3.537347 -3.466816 15.718012 -3.537340 -3.466826 -2.063352 4.311379 0.891152 -2.063349 4.311381 0.891165 -0.000001 0.000000 0.000001 0.808030 0.090959 -16.634166 5.538186 8.016212 -25.562982 -147.728386 -172.564620 -191.581124 -0.000001 0.000000 0.000000 0.519699 14.352714 10.468559 8.832708 -23.077794 71.207577 -393.496187 73.254004 381.439209 -0.000000 0.000000 0.000001 -103.948888 6.929928 34.260932 88.383987 -16.939419 -5.188884 0.801887 -0.284744 0.859128 -1.983104 5.923817 -8.251567 0.000000 0.000000 -0.000000 -62.218850 -18.312248 -52.457591 115.120311 32.320179 1.031880 46.641036 15.317358 39.818176 16.650936 -6.770523 -1.216765 0.000002 -0.000003 -0.000001 
5.718945 51.352264 423.666565 21.469064 -43.423098 31.485403 7.564610 -1.994527 -2.065348 15.098552 -3.805893 -3.272360 15.098562 -3.805892 -3.272369 -2.224972 4.321177 0.954381 -2.224953 4.321172 0.954386 -0.000003 -0.000002 0.000003 0.735559 0.141914 -13.941056 4.467894 9.113523 -22.770432 -153.893861 -174.354826 -191.350577 0.000000 -0.000001 0.000000 0.631934 13.868501 9.572959 12.953075 -19.675002 75.374669 -411.222631 79.607064 404.251522 -0.000001 0.000000 0.000000 -105.151199 8.515959 36.290544 92.631490 -16.317339 -5.525856 -1.913833 -0.692359 5.549973 -1.140187 4.540637 -6.555569 0.000000 -0.000001 -0.000000 -54.459502 -22.604422 -49.800719 108.584517 37.193816 2.147185 46.319437 15.947209 41.571776 16.452708 -6.201787 0.045330 0.000001 -0.000001 0.000000 
4.491058 52.989914 429.109985 21.170007 -42.003372 26.844812 7.178745 -2.116813 -1.973026 14.320505 -4.074166 -3.257606 14.320484 -4.074140 -3.257626 -2.360063 4.321870 0.992390 -2.360079 4.321878 0.992382 -0.000002 0.000002 0.000000 0.664656 -0.017331 -12.076667 2.059098 9.720484 -19.893729 -161.195101 -176.304217 -190.718949 0.000002 -0.000001 -0.000000 0.663296 13.967844 9.187640 14.716133 -16.126444 77.502314 -451.219673 82.941958 447.348922 -0.000000 -0.000001 -0.000000 -104.774426 8.306757 37.633304 95.692364 -15.487725 -7.623402 -5.691022 -1.430860 9.441207 -1.185890 3.402947 -4.828154 0.000000 0.000000 0.000000 -46.771609 -25.034383 -43.581771 100.727245 42.741319 3.792639 45.050207 16.760740 44.762820 13.636885 -4.832341 3.621134 0.000002 -0.000002 0.000000 
3.478281 54.667091 434.460205 22.329463 -40.678769 23.791337 6.666358 -2.206569 -2.078714 13.284464 -4.290555 -3.580753 13.284466 -4.290542 -3.580757 -2.471585 4.313579 1.008366 -2.471587 4.313578 1.008354 -0.000000 0.000002 -0.000001 0.611274 -0.387390 -10.992768 -1.458576 9.444332 -16.777234 -168.640553 -178.004415 -189.833579 0.000000 0.000002 -0.000001 0.639298 14.394557 9.209048 14.267555 -12.741932 78.154836 -491.841157 83.197954 489.195524 0.000002 -0.000001 0.000001 -103.198667 6.934714 38.238384 98.018897 -15.027941 -10.765311 -10.456064 -2.290595 12.069614 -2.339832 2.817115 -3.549103 0.000001 0.000002 -0.000000 -39.836593 -24.940173 -35.155721 92.341118 47.727996 5.797458 42.536396 17.240557 48.788707 9.125046 -3.308222 8.478621 -0.000003 0.000001 0.000001 
2.531034 56.345932 439.667938 24.337800 -39.546204 22.116279 6.046171 -2.252371 -2.366152 12.027311 -4.423668 -4.236395 12.027313 -4.423654 -4.236396 -2.560074 4.295342 1.003765 -2.560064 4.295355 1.003759 0.000002 0.000002 0.000000 0.586127 -0.979348 -10.404226 -5.603661 7.899291 -13.655615 -175.041616 -179.208932 -189.041946 -0.000003 0.000002 0.000001 0.594846 14.887511 9.408285 12.162244 -9.636865 77.983002 -513.131021 82.466406 510.452712 0.000003 -0.000001 0.000001 -101.070619 5.438470 37.456850 100.406629 -14.558818 -12.856938 -16.615858 -2.915288 12.700512 -4.002681 2.794732 -2.966247 0.000000 0.000002 0.000000 -34.364259 -22.749116 -26.338446 84.317579 50.915662 7.391558 39.456579 17.344150 53.103556 4.804198 -2.265800 13.093831 -0.000001 -0.000000 0.000002 
